<svg xmlns="http://www.w3.org/2000/svg" width="16" height="16" viewBox="0 0 16 16">
  <defs>
    <style>
      .cls-1 {
        fill: #001428;
      }
    </style>
  </defs>
  <path id="instagram" class="cls-1" d="M4.667,16A4.681,4.681,0,0,1,0,11.334V4.667A4.68,4.68,0,0,1,4.667,0h6.667A4.681,4.681,0,0,1,16,4.667v6.667A4.681,4.681,0,0,1,11.334,16ZM2.312,2.312a3.33,3.33,0,0,0-.979,2.354v6.667a3.343,3.343,0,0,0,3.334,3.333h6.667a3.343,3.343,0,0,0,3.333-3.333V4.667a3.343,3.343,0,0,0-3.333-3.334H4.667A3.309,3.309,0,0,0,2.312,2.312ZM4,8a4,4,0,1,1,4,4A4,4,0,0,1,4,8ZM5.333,8A2.667,2.667,0,1,0,8,5.333,2.669,2.669,0,0,0,5.333,8Zm6-4.334a1,1,0,1,1,1,1A1,1,0,0,1,11.334,3.666Z"/>
</svg>
