<svg xmlns="http://www.w3.org/2000/svg" width="20" height="16" viewBox="0 0 20 16">
  <defs>
    <style>
      .cls-1 {
        fill: #001428;
      }
    </style>
  </defs>
  <path id="twitter" class="cls-1" d="M17.944,7.368c.013.175.013.35.013.525A11.491,11.491,0,0,1,6.294,19.381,11.712,11.712,0,0,1,0,17.568a8.607,8.607,0,0,0,.99.05,8.289,8.289,0,0,0,5.089-1.725,4.1,4.1,0,0,1-3.833-2.8,5.246,5.246,0,0,0,.774.062A4.4,4.4,0,0,0,4.1,13.018,4.054,4.054,0,0,1,.812,9.056v-.05a4.176,4.176,0,0,0,1.853.512A4.019,4.019,0,0,1,.838,6.156,3.961,3.961,0,0,1,1.4,4.118,11.711,11.711,0,0,0,9.848,8.343a4.492,4.492,0,0,1-.1-.925,4.067,4.067,0,0,1,4.1-4.038A4.118,4.118,0,0,1,16.84,4.656a8.145,8.145,0,0,0,2.6-.975,4.038,4.038,0,0,1-1.8,2.225A8.316,8.316,0,0,0,20,5.281a8.74,8.74,0,0,1-2.056,2.087Z" transform="translate(0 -3.381)"/>
</svg>
