<svg xmlns="http://www.w3.org/2000/svg" width="22" height="16" viewBox="0 0 22 16">
  <defs>
    <style>
      .cls-1 {
        fill: #001428;
      }
    </style>
  </defs>
  <path id="youtube" class="cls-1" d="M21.857,8.033a3.281,3.281,0,0,0-3.18-3.383c-2.381-.108-4.809-.15-7.289-.15h-.774c-2.475,0-4.908.042-7.289.15A3.288,3.288,0,0,0,.15,8.041C.043,9.525,0,11.008,0,12.491s.043,2.967.146,4.454a3.292,3.292,0,0,0,3.176,3.4c2.5.112,5.067.162,7.675.158s5.17-.042,7.675-.158a3.293,3.293,0,0,0,3.18-3.4c.1-1.487.15-2.971.146-4.458S21.96,9.521,21.857,8.033ZM8.9,16.578V8.391l6.231,4.091Z" transform="translate(0 -4.5)"/>
</svg>
